<svg width="420" height="420" viewBox="0 0 420 420" xmlns="http://www.w3.org/2000/svg">
  <defs>
    <radialGradient id="gglow" cx="50%" cy="50%" r="50%">
      <stop offset="0%" stop-color="#FF6B00" stop-opacity="0.38"/>
      <stop offset="100%" stop-color="#FF6B00" stop-opacity="0"/>
    </radialGradient>
    <radialGradient id="gvia" cx="35%" cy="35%" r="65%">
      <stop offset="0%" stop-color="#FFD580"/>
      <stop offset="50%" stop-color="#FF6B00"/>
      <stop offset="100%" stop-color="#8B2500"/>
    </radialGradient>
    <linearGradient id="gface" x1="0" y1="0" x2="1" y2="1">
      <stop offset="0%" stop-color="#FF8C2A" stop-opacity="0.10"/>
      <stop offset="100%" stop-color="#CC3D00" stop-opacity="0.03"/>
    </linearGradient>
    <linearGradient id="ghex" x1="0" y1="0" x2="1" y2="1">
      <stop offset="0%" stop-color="#FFB347"/>
      <stop offset="100%" stop-color="#FF4500"/>
    </linearGradient>
    <filter id="soft" x="-40%" y="-40%" width="180%" height="180%">
      <feGaussianBlur stdDeviation="5"/>
    </filter>
    <filter id="viafx" x="-100%" y="-100%" width="300%" height="300%">
      <feGaussianBlur stdDeviation="4"/>
    </filter>
    <filter id="traceglow" x="-60%" y="-60%" width="220%" height="220%">
      <feGaussianBlur stdDeviation="2.5"/>
    </filter>
    <clipPath id="hexclip">
      <polygon points="210,28 368,119 368,301 210,392 52,301 52,119"/>
    </clipPath>
  </defs>

  <rect width="420" height="420" fill="#0D0D0D"/>
  <circle cx="210" cy="210" r="180" fill="url(#gglow)" filter="url(#soft)"/>

  <polygon points="210,12 378,105 378,315 210,408 42,315 42,105"
    fill="none" stroke="#FF6B00" stroke-width="0.7" stroke-opacity="0.15" stroke-dasharray="6 5"/>

  <g stroke="#FF6B00" stroke-width="1.5" stroke-linecap="round" opacity="0.4">
    <line x1="210" y1="12"  x2="210" y2="0"/>
    <line x1="210" y1="408" x2="210" y2="420"/>
    <line x1="378" y1="105" x2="390" y2="98"/>
    <line x1="42"  y1="105" x2="30"  y2="98"/>
    <line x1="378" y1="315" x2="390" y2="322"/>
    <line x1="42"  y1="315" x2="30"  y2="322"/>
  </g>

  <polygon points="210,28 368,119 368,301 210,392 52,301 52,119"
    fill="#FF5500" opacity="0.07" filter="url(#soft)"/>
  <polygon points="210,28 368,119 368,301 210,392 52,301 52,119"
    fill="url(#gface)"/>
  <polygon points="210,28 368,119 368,301 210,392 52,301 52,119"
    fill="none" stroke="url(#ghex)" stroke-width="2.5" stroke-linejoin="round"/>

  <g fill="#FF6B00" opacity="0.8">
    <polygon points="210,28  227,43  193,43"/>
    <polygon points="368,119 355,135 362,104"/>
    <polygon points="368,301 362,316 355,285"/>
    <polygon points="210,392 193,377 227,377"/>
    <polygon points="52,301  65,285  58,316"/>
    <polygon points="52,119  58,104  65,135"/>
  </g>

  <g fill="#FF8C2A">
    <circle cx="248" cy="39"  r="3"/>
    <circle cx="172" cy="39"  r="3"/>
    <circle cx="340" cy="91"  r="3"/>
    <circle cx="80"  cy="91"  r="3"/>
    <circle cx="368" cy="210" r="3.5"/>
    <circle cx="52"  cy="210" r="3.5"/>
    <circle cx="340" cy="329" r="3"/>
    <circle cx="80"  cy="329" r="3"/>
    <circle cx="248" cy="381" r="3"/>
    <circle cx="172" cy="381" r="3"/>
  </g>

  <g stroke="#FF6B00" stroke-width="1" stroke-opacity="0.25" fill="none">
    <polyline points="52,140  18,140  18,112  4,112"/>
    <circle cx="4"   cy="112" r="3" fill="#FF6B00" fill-opacity="0.4" stroke="none"/>
    <polyline points="368,140 402,140 402,112 416,112"/>
    <circle cx="416" cy="112" r="3" fill="#FF6B00" fill-opacity="0.4" stroke="none"/>
    <polyline points="62,328  24,328  24,356"/>
    <circle cx="24"  cy="356" r="3" fill="#FF6B00" fill-opacity="0.4" stroke="none"/>
    <polyline points="358,328 396,328 396,356"/>
    <circle cx="396" cy="356" r="3" fill="#FF6B00" fill-opacity="0.4" stroke="none"/>
    <polyline points="182,32 182,8 210,8"/>
    <polyline points="238,32 238,8"/>
  </g>

  <g clip-path="url(#hexclip)">
    <g stroke="#FF6B00" fill="none" stroke-linecap="round" stroke-linejoin="round" opacity="0.15" filter="url(#traceglow)">
      <polyline points="68,150 105,150 105,182 138,182 138,204" stroke-width="5"/>
      <polyline points="240,28 240,78 218,78 218,115 210,115 210,162" stroke-width="4"/>
      <polyline points="325,95 325,135 292,135 292,172 272,172 272,204" stroke-width="4"/>
      <polyline points="368,222 330,222 330,204 296,204" stroke-width="4"/>
      <polyline points="178,392 178,354 202,354 202,316 180,316 180,280 206,280 206,265 226,265 226,218" stroke-width="4"/>
      <polyline points="78,314 112,314 112,282 138,282 138,265 158,265 158,218" stroke-width="4"/>
    </g>

    <g stroke="#FF7A1A" fill="none" stroke-linecap="round" stroke-linejoin="round">
      <polyline points="68,150 105,150 105,182 138,182 138,204" stroke-width="2" stroke-opacity="0.75"/>
      <polyline points="240,28 240,78 218,78 218,115 210,115 210,162" stroke-width="1.6" stroke-opacity="0.68"/>
      <polyline points="325,95 325,135 292,135 292,172 272,172 272,204" stroke-width="1.5" stroke-opacity="0.65"/>
      <polyline points="368,222 330,222 330,204 296,204" stroke-width="2" stroke-opacity="0.72"/>
      <polyline points="178,392 178,354 202,354 202,316 180,316 180,280 206,280 206,265 226,265 226,218" stroke-width="1.4" stroke-opacity="0.62"/>
      <polyline points="78,314 112,314 112,282 138,282 138,265 158,265 158,218" stroke-width="1.3" stroke-opacity="0.58"/>
    </g>

    <g stroke="#FFB347" fill="none" stroke-linecap="round" stroke-linejoin="round" stroke-width="0.9" stroke-opacity="0.28">
      <polyline points="105,182 120,182 120,200 136,200"/>
      <polyline points="218,115 234,115 234,142 218,142 218,162"/>
      <polyline points="292,172 277,172 277,190 265,190"/>
      <polyline points="180,280 163,280 163,262 178,262"/>
    </g>

    <circle cx="148" cy="142" r="10" fill="#FF6B00" fill-opacity="0.12" filter="url(#viafx)"/>
    <circle cx="148" cy="142" r="9"  fill="#1A0A00" stroke="#FFB347" stroke-width="2.2"/>
    <circle cx="148" cy="142" r="5"  fill="url(#gvia)"/>
    <circle cx="148" cy="142" r="2"  fill="#FFE5A0"/>

    <circle cx="280" cy="130" r="10" fill="#FF6B00" fill-opacity="0.12" filter="url(#viafx)"/>
    <circle cx="280" cy="130" r="9"  fill="#1A0A00" stroke="#FFB347" stroke-width="2.2"/>
    <circle cx="280" cy="130" r="5"  fill="url(#gvia)"/>
    <circle cx="280" cy="130" r="2"  fill="#FFE5A0"/>

    <circle cx="118" cy="272" r="10" fill="#FF6B00" fill-opacity="0.12" filter="url(#viafx)"/>
    <circle cx="118" cy="272" r="9"  fill="#1A0A00" stroke="#FFB347" stroke-width="2.2"/>
    <circle cx="118" cy="272" r="5"  fill="url(#gvia)"/>
    <circle cx="118" cy="272" r="2"  fill="#FFE5A0"/>

    <circle cx="318" cy="260" r="10" fill="#FF6B00" fill-opacity="0.12" filter="url(#viafx)"/>
    <circle cx="318" cy="260" r="9"  fill="#1A0A00" stroke="#FFB347" stroke-width="2.2"/>
    <circle cx="318" cy="260" r="5"  fill="url(#gvia)"/>
    <circle cx="318" cy="260" r="2"  fill="#FFE5A0"/>

    <circle cx="162" cy="340" r="10" fill="#FF6B00" fill-opacity="0.12" filter="url(#viafx)"/>
    <circle cx="162" cy="340" r="9"  fill="#1A0A00" stroke="#FFB347" stroke-width="2.2"/>
    <circle cx="162" cy="340" r="5"  fill="url(#gvia)"/>
    <circle cx="162" cy="340" r="2"  fill="#FFE5A0"/>

    <circle cx="268" cy="334" r="10" fill="#FF6B00" fill-opacity="0.12" filter="url(#viafx)"/>
    <circle cx="268" cy="334" r="9"  fill="#1A0A00" stroke="#FFB347" stroke-width="2.2"/>
    <circle cx="268" cy="334" r="5"  fill="url(#gvia)"/>
    <circle cx="268" cy="334" r="2"  fill="#FFE5A0"/>

    <circle cx="210" cy="210" r="16" fill="#FF6B00" fill-opacity="0.15" filter="url(#viafx)"/>
    <circle cx="210" cy="210" r="14" fill="#1A0A00" stroke="url(#ghex)" stroke-width="2.5"/>
    <circle cx="210" cy="210" r="8"  fill="url(#gvia)"/>
    <circle cx="210" cy="210" r="3.5" fill="#FFE5A0"/>
  </g>
</svg>
